<svg width="25" height="24" viewBox="0 0 25 24" fill="none" xmlns="http://www.w3.org/2000/svg">
<path fill-rule="evenodd" clip-rule="evenodd" d="M19.7786 4.72105C19.1493 4.09298 18.1284 4.09298 17.4991 4.72105L16.6144 5.60408L18.8918 7.87702L19.7786 6.9919C20.4071 6.36465 20.4071 5.3483 19.7786 4.72105ZM17.8301 8.93664L15.5526 6.6637L4.75 17.4451V19.7501H6.99534L17.8301 8.93664ZM16.4395 3.65934C17.6544 2.44689 19.6234 2.44689 20.8383 3.65934C22.0539 4.87262 22.0539 6.84033 20.8383 8.05361L7.83537 21.0309C7.69476 21.1712 7.50422 21.2501 7.30557 21.2501H4C3.58579 21.2501 3.25 20.9143 3.25 20.5001V17.134C3.25 16.9348 3.32922 16.7438 3.47019 16.6032L16.4395 3.65934Z" fill="#1E96EB"/>
</svg>

