<svg width="25" height="24" viewBox="0 0 25 24" fill="none" xmlns="http://www.w3.org/2000/svg">
<path fill-rule="evenodd" clip-rule="evenodd" d="M3.75 4C3.75 3.58579 4.08579 3.25 4.5 3.25H20.5C20.9142 3.25 21.25 3.58579 21.25 4V6.66667C21.25 7.08088 20.9142 7.41667 20.5 7.41667C20.0858 7.41667 19.75 7.08088 19.75 6.66667V4.75H13.25V19.25H16.5C16.9142 19.25 17.25 19.5858 17.25 20C17.25 20.4142 16.9142 20.75 16.5 20.75H8.5C8.08579 20.75 7.75 20.4142 7.75 20C7.75 19.5858 8.08579 19.25 8.5 19.25H11.75V4.75H5.25V6.66667C5.25 7.08088 4.91421 7.41667 4.5 7.41667C4.08579 7.41667 3.75 7.08088 3.75 6.66667V4Z" fill="#1E96EB"/>
</svg>

